<svg width="223" height="264" viewBox="0 0 223 264" fill="none" xmlns="http://www.w3.org/2000/svg">
<path fill-rule="evenodd" clip-rule="evenodd" d="M39.1378 124.279C80.1483 93.9437 127.095 61.7432 168.013 30.8553C182.152 20.1847 197.082 11.0431 209.448 0.179138C196.981 3.4305 179.421 11.674 166.369 16.8781C132.575 30.3487 148.303 21.1104 119.598 19.4985C81.7785 17.3754 57.1492 29.6579 32.5153 52.2885C13.9512 69.3466 -2.8813 103.311 0.522037 140.61C2.10627 157.949 7.91818 174.528 15.2314 186.824C21.2 196.859 33.312 212.278 43.0154 218.223C41.9101 227.673 33.6343 243.17 30.9264 252.8L116.774 147.987C110.129 144.92 96.6492 141.941 88.4701 139.583C83.2062 138.063 64.596 133.748 61.1604 130.68C64.0342 126.236 108.826 88.7719 117.115 81.256C124.944 74.1592 170.109 36.1744 172.702 31.6566C165.743 34.4152 72.7659 105.558 55.9887 117.763C45.8799 125.122 44.3372 128.327 39.1378 124.279Z" fill="#E9B434"/>
<path fill-rule="evenodd" clip-rule="evenodd" d="M67.0429 244.971C96.3835 231.947 82.5952 245.219 120.833 241.719C140.185 239.946 154.254 234.94 169.291 226.13C181.218 219.144 195.398 205.729 202.573 195.164C233.305 149.93 228.22 86.971 190.954 53.0987C180.712 43.7867 190.738 37.938 201.565 11.029C197.927 11.7705 200.165 10.6744 197.443 13.2948C196.807 13.9119 195.615 15.8876 194.841 16.9008L114.713 107.267C112.926 109.311 111.609 111.356 109.854 113.926L167.849 128.488C164.064 134.466 146.453 148.728 139.876 154.706L119.042 174.592C116.463 176.729 114.565 177.963 112.088 180.059C109.044 182.638 108.367 184.332 105.479 186.976L83.636 205.964C80.6701 208.515 79.8596 210.329 77.0089 212.89C74.3332 215.294 72.1134 216.514 69.4147 218.955L56.179 232.426C67.8903 225.481 78.5608 215.188 89.6459 207.018L171.52 143.082C174.711 140.628 176.392 139.393 179.818 136.52C182.687 134.116 184.152 132.306 188.509 134.378L21.6758 264L67.0475 244.966L67.0429 244.971Z" fill="#272424"/>
</svg>
