<svg width="301" height="300" viewBox="0 0 301 300" fill="none" xmlns="http://www.w3.org/2000/svg">
<rect x="0.401855" width="300" height="300" rx="37.5" fill="#E9B434"/>
<path fill-rule="evenodd" clip-rule="evenodd" d="M78.1763 142.19C119.187 111.854 166.134 79.6538 207.052 48.7658C221.19 38.0952 236.121 28.9536 248.486 18.0897C236.02 21.341 218.459 29.5846 205.408 34.7886C171.614 48.2592 187.341 39.0209 158.636 37.409C120.817 35.286 96.1878 47.5684 71.5539 70.199C52.9898 87.2572 36.1573 121.222 39.5606 158.52C41.1448 175.859 46.9567 192.438 54.27 204.735C60.2385 214.77 72.3505 230.188 82.054 236.134C80.9487 245.584 72.6729 261.081 69.965 270.711L155.813 165.898C149.168 162.831 135.688 159.851 127.509 157.493C122.245 155.973 103.635 151.658 100.199 148.591C103.073 144.147 147.864 106.682 156.154 99.1666C163.983 92.0697 209.147 54.0849 211.74 49.5671C204.782 52.3257 111.804 123.469 95.0272 135.673C84.9185 143.032 83.3757 146.238 78.1763 142.19Z" fill="white"/>
<path fill-rule="evenodd" clip-rule="evenodd" d="M106.082 262.881C135.422 249.857 121.634 263.13 159.872 259.63C179.223 257.857 193.293 252.851 208.329 244.041C220.257 237.055 234.437 223.639 241.612 213.075C272.343 167.841 267.259 104.881 229.993 71.0092C219.75 61.6972 229.776 55.8485 240.603 28.9395C236.965 29.681 239.203 28.5849 236.482 31.2053C235.846 31.8224 234.653 33.7981 233.88 34.8113L153.751 125.177C151.964 127.222 150.647 129.267 148.893 131.836L206.888 146.399C203.102 152.376 185.491 166.639 178.915 172.617L158.08 192.503C155.501 194.639 153.604 195.874 151.126 197.969C148.082 200.548 147.405 202.243 144.518 204.886L122.675 223.874C119.709 226.425 118.898 228.24 116.047 230.801C113.372 233.205 111.152 234.425 108.453 236.866L95.2175 250.336C106.929 243.391 117.599 233.099 128.684 224.929L210.558 160.993C213.75 158.538 215.431 157.304 218.857 154.43C221.726 152.026 223.191 150.216 227.547 152.289L60.7144 281.911L106.086 262.877L106.082 262.881Z" fill="white"/>
</svg>
