<svg width="55" height="55" viewBox="0 0 55 55" fill="none" xmlns="http://www.w3.org/2000/svg">
<g clip-path="url(#clip0_48_6722)">
<path d="M47.9069 45.6414C44.6843 40.0727 39.6252 36.1652 33.7466 34.5081C36.6047 33.0553 38.8901 30.6822 40.2344 27.7716C41.5788 24.861 41.9037 21.5824 41.1567 18.4645C40.4097 15.3467 38.6345 12.5712 36.1171 10.5858C33.5998 8.6003 30.4872 7.52051 27.2811 7.52051C24.075 7.52051 20.9623 8.6003 18.445 10.5858C15.9277 12.5712 14.1524 15.3467 13.4054 18.4645C12.6585 21.5824 12.9833 24.861 14.3277 27.7716C15.672 30.6822 17.9575 33.0553 20.8155 34.5081C14.937 36.1632 9.87784 40.0707 6.65525 45.6414C6.56676 45.7806 6.50734 45.9363 6.48057 46.099C6.4538 46.2618 6.46023 46.4283 6.49947 46.5885C6.53871 46.7487 6.60996 46.8993 6.70892 47.0313C6.80788 47.1632 6.93251 47.2738 7.07531 47.3563C7.21811 47.4389 7.37614 47.4917 7.53988 47.5116C7.70362 47.5315 7.86969 47.518 8.0281 47.4721C8.18651 47.4261 8.33399 47.3486 8.46167 47.2442C8.58934 47.1397 8.69457 47.0106 8.77103 46.8644C12.6867 40.0992 19.6047 36.0613 27.2811 36.0613C34.9574 36.0613 41.8755 40.0992 45.7911 46.8644C45.8676 47.0106 45.9728 47.1397 46.1005 47.2442C46.2281 47.3486 46.3756 47.4261 46.534 47.4721C46.6924 47.518 46.8585 47.5315 47.0222 47.5116C47.186 47.4917 47.344 47.4389 47.4868 47.3563C47.6296 47.2738 47.7542 47.1632 47.8532 47.0313C47.9522 46.8993 48.0234 46.7487 48.0627 46.5885C48.1019 46.4283 48.1083 46.2618 48.0816 46.099C48.0548 45.9363 47.9954 45.7806 47.9069 45.6414ZM15.4588 21.793C15.4588 19.4548 16.1521 17.1691 17.4512 15.2249C18.7502 13.2807 20.5966 11.7654 22.7569 10.8706C24.9171 9.97583 27.2942 9.7417 29.5875 10.1979C31.8808 10.654 33.9873 11.78 35.6407 13.4334C37.2941 15.0868 38.42 17.1933 38.8762 19.4866C39.3324 21.7799 39.0982 24.1569 38.2034 26.3172C37.3086 28.4774 35.7933 30.3238 33.8492 31.6229C31.905 32.9219 29.6193 33.6153 27.2811 33.6153C24.1468 33.6115 21.1419 32.3647 18.9256 30.1484C16.7093 27.9322 15.4626 24.9273 15.4588 21.793Z" fill="url(#paint0_linear_48_6722)"/>
<g filter="url(#filter0_f_48_6722)">
<circle cx="22.1555" cy="21.8235" r="17.4339" fill="#EAB220" fill-opacity="0.24"/>
</g>
</g>
<defs>
<filter id="filter0_f_48_6722" x="-2.01516" y="-2.34719" width="48.3414" height="48.3414" filterUnits="userSpaceOnUse" color-interpolation-filters="sRGB">
<feFlood flood-opacity="0" result="BackgroundImageFix"/>
<feBlend mode="normal" in="SourceGraphic" in2="BackgroundImageFix" result="shape"/>
<feGaussianBlur stdDeviation="3.36842" result="effect1_foregroundBlur_48_6722"/>
</filter>
<linearGradient id="paint0_linear_48_6722" x1="27.2811" y1="7.52051" x2="27.2811" y2="47.5205" gradientUnits="userSpaceOnUse">
<stop stop-color="#F74C06"/>
<stop offset="1" stop-color="#FFE7A7"/>
</linearGradient>
<clipPath id="clip0_48_6722">
<rect width="53.89" height="53.89" fill="white" transform="translate(0.72168 0.389648)"/>
</clipPath>
</defs>
</svg>
